<svg width="800" height="1200" xmlns="http://www.w3.org/2000/svg"><circle cx="50" cy="171.42857142857142" r="20" fill="skyblue" /><line x1="50" y1="171.42857142857142" x2="250" y2="92.3076923076923" stroke="black" /><line x1="50" y1="171.42857142857142" x2="250" y2="184.6153846153846" stroke="black" /><line x1="50" y1="171.42857142857142" x2="250" y2="276.9230769230769" stroke="black" /><line x1="50" y1="171.42857142857142" x2="250" y2="369.2307692307692" stroke="black" /><line x1="50" y1="171.42857142857142" x2="250" y2="461.53846153846155" stroke="black" /><line x1="50" y1="171.42857142857142" x2="250" y2="553.8461538461538" stroke="black" /><line x1="50" y1="171.42857142857142" x2="250" y2="646.1538461538462" stroke="black" /><line x1="50" y1="171.42857142857142" x2="250" y2="738.4615384615385" stroke="black" /><line x1="50" y1="171.42857142857142" x2="250" y2="830.7692307692307" stroke="black" /><line x1="50" y1="171.42857142857142" x2="250" y2="923.0769230769231" stroke="black" /><line x1="50" y1="171.42857142857142" x2="250" y2="1015.3846153846154" stroke="black" /><line x1="50" y1="171.42857142857142" x2="250" y2="1107.6923076923076" stroke="black" /><circle cx="50" cy="342.85714285714283" r="20" fill="skyblue" /><line x1="50" y1="342.85714285714283" x2="250" y2="92.3076923076923" stroke="black" /><line x1="50" y1="342.85714285714283" x2="250" y2="184.6153846153846" stroke="black" /><line x1="50" y1="342.85714285714283" x2="250" y2="276.9230769230769" stroke="black" /><line x1="50" y1="342.85714285714283" x2="250" y2="369.2307692307692" stroke="black" /><line x1="50" y1="342.85714285714283" x2="250" y2="461.53846153846155" stroke="black" /><line x1="50" y1="342.85714285714283" x2="250" y2="553.8461538461538" stroke="black" /><line x1="50" y1="342.85714285714283" x2="250" y2="646.1538461538462" stroke="black" /><line x1="50" y1="342.85714285714283" x2="250" y2="738.4615384615385" stroke="black" /><line x1="50" y1="342.85714285714283" x2="250" y2="830.7692307692307" stroke="black" /><line x1="50" y1="342.85714285714283" x2="250" y2="923.0769230769231" stroke="black" /><line x1="50" y1="342.85714285714283" x2="250" y2="1015.3846153846154" stroke="black" /><line x1="50" y1="342.85714285714283" x2="250" y2="1107.6923076923076" stroke="black" /><circle cx="50" cy="514.2857142857142" r="20" fill="skyblue" /><line x1="50" y1="514.2857142857142" x2="250" y2="92.3076923076923" stroke="black" /><line x1="50" y1="514.2857142857142" x2="250" y2="184.6153846153846" stroke="black" /><line x1="50" y1="514.2857142857142" x2="250" y2="276.9230769230769" stroke="black" /><line x1="50" y1="514.2857142857142" x2="250" y2="369.2307692307692" stroke="black" /><line x1="50" y1="514.2857142857142" x2="250" y2="461.53846153846155" stroke="black" /><line x1="50" y1="514.2857142857142" x2="250" y2="553.8461538461538" stroke="black" /><line x1="50" y1="514.2857142857142" x2="250" y2="646.1538461538462" stroke="black" /><line x1="50" y1="514.2857142857142" x2="250" y2="738.4615384615385" stroke="black" /><line x1="50" y1="514.2857142857142" x2="250" y2="830.7692307692307" stroke="black" /><line x1="50" y1="514.2857142857142" x2="250" y2="923.0769230769231" stroke="black" /><line x1="50" y1="514.2857142857142" x2="250" y2="1015.3846153846154" stroke="black" /><line x1="50" y1="514.2857142857142" x2="250" y2="1107.6923076923076" stroke="black" /><circle cx="50" cy="685.7142857142857" r="20" fill="skyblue" /><line x1="50" y1="685.7142857142857" x2="250" y2="92.3076923076923" stroke="black" /><line x1="50" y1="685.7142857142857" x2="250" y2="184.6153846153846" stroke="black" /><line x1="50" y1="685.7142857142857" x2="250" y2="276.9230769230769" stroke="black" /><line x1="50" y1="685.7142857142857" x2="250" y2="369.2307692307692" stroke="black" /><line x1="50" y1="685.7142857142857" x2="250" y2="461.53846153846155" stroke="black" /><line x1="50" y1="685.7142857142857" x2="250" y2="553.8461538461538" stroke="black" /><line x1="50" y1="685.7142857142857" x2="250" y2="646.1538461538462" stroke="black" /><line x1="50" y1="685.7142857142857" x2="250" y2="738.4615384615385" stroke="black" /><line x1="50" y1="685.7142857142857" x2="250" y2="830.7692307692307" stroke="black" /><line x1="50" y1="685.7142857142857" x2="250" y2="923.0769230769231" stroke="black" /><line x1="50" y1="685.7142857142857" x2="250" y2="1015.3846153846154" stroke="black" /><line x1="50" y1="685.7142857142857" x2="250" y2="1107.6923076923076" stroke="black" /><circle cx="50" cy="857.1428571428571" r="20" fill="skyblue" /><line x1="50" y1="857.1428571428571" x2="250" y2="92.3076923076923" stroke="black" /><line x1="50" y1="857.1428571428571" x2="250" y2="184.6153846153846" stroke="black" /><line x1="50" y1="857.1428571428571" x2="250" y2="276.9230769230769" stroke="black" /><line x1="50" y1="857.1428571428571" x2="250" y2="369.2307692307692" stroke="black" /><line x1="50" y1="857.1428571428571" x2="250" y2="461.53846153846155" stroke="black" /><line x1="50" y1="857.1428571428571" x2="250" y2="553.8461538461538" stroke="black" /><line x1="50" y1="857.1428571428571" x2="250" y2="646.1538461538462" stroke="black" /><line x1="50" y1="857.1428571428571" x2="250" y2="738.4615384615385" stroke="black" /><line x1="50" y1="857.1428571428571" x2="250" y2="830.7692307692307" stroke="black" /><line x1="50" y1="857.1428571428571" x2="250" y2="923.0769230769231" stroke="black" /><line x1="50" y1="857.1428571428571" x2="250" y2="1015.3846153846154" stroke="black" /><line x1="50" y1="857.1428571428571" x2="250" y2="1107.6923076923076" stroke="black" /><circle cx="50" cy="1028.5714285714284" r="20" fill="skyblue" /><line x1="50" y1="1028.5714285714284" x2="250" y2="92.3076923076923" stroke="black" /><line x1="50" y1="1028.5714285714284" x2="250" y2="184.6153846153846" stroke="black" /><line x1="50" y1="1028.5714285714284" x2="250" y2="276.9230769230769" stroke="black" /><line x1="50" y1="1028.5714285714284" x2="250" y2="369.2307692307692" stroke="black" /><line x1="50" y1="1028.5714285714284" x2="250" y2="461.53846153846155" stroke="black" /><line x1="50" y1="1028.5714285714284" x2="250" y2="553.8461538461538" stroke="black" /><line x1="50" y1="1028.5714285714284" x2="250" y2="646.1538461538462" stroke="black" /><line x1="50" y1="1028.5714285714284" x2="250" y2="738.4615384615385" stroke="black" /><line x1="50" y1="1028.5714285714284" x2="250" y2="830.7692307692307" stroke="black" /><line x1="50" y1="1028.5714285714284" x2="250" y2="923.0769230769231" stroke="black" /><line x1="50" y1="1028.5714285714284" x2="250" y2="1015.3846153846154" stroke="black" /><line x1="50" y1="1028.5714285714284" x2="250" y2="1107.6923076923076" stroke="black" /><circle cx="250" cy="92.3076923076923" r="20" fill="skyblue" /><line x1="250" y1="92.3076923076923" x2="450" y2="92.3076923076923" stroke="black" /><line x1="250" y1="92.3076923076923" x2="450" y2="184.6153846153846" stroke="black" /><line x1="250" y1="92.3076923076923" x2="450" y2="276.9230769230769" stroke="black" /><line x1="250" y1="92.3076923076923" x2="450" y2="369.2307692307692" stroke="black" /><line x1="250" y1="92.3076923076923" x2="450" y2="461.53846153846155" stroke="black" /><line x1="250" y1="92.3076923076923" x2="450" y2="553.8461538461538" stroke="black" /><line x1="250" y1="92.3076923076923" x2="450" y2="646.1538461538462" stroke="black" /><line x1="250" y1="92.3076923076923" x2="450" y2="738.4615384615385" stroke="black" /><line x1="250" y1="92.3076923076923" x2="450" y2="830.7692307692307" stroke="black" /><line x1="250" y1="92.3076923076923" x2="450" y2="923.0769230769231" stroke="black" /><line x1="250" y1="92.3076923076923" x2="450" y2="1015.3846153846154" stroke="black" /><line x1="250" y1="92.3076923076923" x2="450" y2="1107.6923076923076" stroke="black" /><circle cx="250" cy="184.6153846153846" r="20" fill="skyblue" /><line x1="250" y1="184.6153846153846" x2="450" y2="92.3076923076923" stroke="black" /><line x1="250" y1="184.6153846153846" x2="450" y2="184.6153846153846" stroke="black" /><line x1="250" y1="184.6153846153846" x2="450" y2="276.9230769230769" stroke="black" /><line x1="250" y1="184.6153846153846" x2="450" y2="369.2307692307692" stroke="black" /><line x1="250" y1="184.6153846153846" x2="450" y2="461.53846153846155" stroke="black" /><line x1="250" y1="184.6153846153846" x2="450" y2="553.8461538461538" stroke="black" /><line x1="250" y1="184.6153846153846" x2="450" y2="646.1538461538462" stroke="black" /><line x1="250" y1="184.6153846153846" x2="450" y2="738.4615384615385" stroke="black" /><line x1="250" y1="184.6153846153846" x2="450" y2="830.7692307692307" stroke="black" /><line x1="250" y1="184.6153846153846" x2="450" y2="923.0769230769231" stroke="black" /><line x1="250" y1="184.6153846153846" x2="450" y2="1015.3846153846154" stroke="black" /><line x1="250" y1="184.6153846153846" x2="450" y2="1107.6923076923076" stroke="black" /><circle cx="250" cy="276.9230769230769" r="20" fill="skyblue" /><line x1="250" y1="276.9230769230769" x2="450" y2="92.3076923076923" stroke="black" /><line x1="250" y1="276.9230769230769" x2="450" y2="184.6153846153846" stroke="black" /><line x1="250" y1="276.9230769230769" x2="450" y2="276.9230769230769" stroke="black" /><line x1="250" y1="276.9230769230769" x2="450" y2="369.2307692307692" stroke="black" /><line x1="250" y1="276.9230769230769" x2="450" y2="461.53846153846155" stroke="black" /><line x1="250" y1="276.9230769230769" x2="450" y2="553.8461538461538" stroke="black" /><line x1="250" y1="276.9230769230769" x2="450" y2="646.1538461538462" stroke="black" /><line x1="250" y1="276.9230769230769" x2="450" y2="738.4615384615385" stroke="black" /><line x1="250" y1="276.9230769230769" x2="450" y2="830.7692307692307" stroke="black" /><line x1="250" y1="276.9230769230769" x2="450" y2="923.0769230769231" stroke="black" /><line x1="250" y1="276.9230769230769" x2="450" y2="1015.3846153846154" stroke="black" /><line x1="250" y1="276.9230769230769" x2="450" y2="1107.6923076923076" stroke="black" /><circle cx="250" cy="369.2307692307692" r="20" fill="skyblue" /><line x1="250" y1="369.2307692307692" x2="450" y2="92.3076923076923" stroke="black" /><line x1="250" y1="369.2307692307692" x2="450" y2="184.6153846153846" stroke="black" /><line x1="250" y1="369.2307692307692" x2="450" y2="276.9230769230769" stroke="black" /><line x1="250" y1="369.2307692307692" x2="450" y2="369.2307692307692" stroke="black" /><line x1="250" y1="369.2307692307692" x2="450" y2="461.53846153846155" stroke="black" /><line x1="250" y1="369.2307692307692" x2="450" y2="553.8461538461538" stroke="black" /><line x1="250" y1="369.2307692307692" x2="450" y2="646.1538461538462" stroke="black" /><line x1="250" y1="369.2307692307692" x2="450" y2="738.4615384615385" stroke="black" /><line x1="250" y1="369.2307692307692" x2="450" y2="830.7692307692307" stroke="black" /><line x1="250" y1="369.2307692307692" x2="450" y2="923.0769230769231" stroke="black" /><line x1="250" y1="369.2307692307692" x2="450" y2="1015.3846153846154" stroke="black" /><line x1="250" y1="369.2307692307692" x2="450" y2="1107.6923076923076" stroke="black" /><circle cx="250" cy="461.53846153846155" r="20" fill="skyblue" /><line x1="250" y1="461.53846153846155" x2="450" y2="92.3076923076923" stroke="black" /><line x1="250" y1="461.53846153846155" x2="450" y2="184.6153846153846" stroke="black" /><line x1="250" y1="461.53846153846155" x2="450" y2="276.9230769230769" stroke="black" /><line x1="250" y1="461.53846153846155" x2="450" y2="369.2307692307692" stroke="black" /><line x1="250" y1="461.53846153846155" x2="450" y2="461.53846153846155" stroke="black" /><line x1="250" y1="461.53846153846155" x2="450" y2="553.8461538461538" stroke="black" /><line x1="250" y1="461.53846153846155" x2="450" y2="646.1538461538462" stroke="black" /><line x1="250" y1="461.53846153846155" x2="450" y2="738.4615384615385" stroke="black" /><line x1="250" y1="461.53846153846155" x2="450" y2="830.7692307692307" stroke="black" /><line x1="250" y1="461.53846153846155" x2="450" y2="923.0769230769231" stroke="black" /><line x1="250" y1="461.53846153846155" x2="450" y2="1015.3846153846154" stroke="black" /><line x1="250" y1="461.53846153846155" x2="450" y2="1107.6923076923076" stroke="black" /><circle cx="250" cy="553.8461538461538" r="20" fill="skyblue" /><line x1="250" y1="553.8461538461538" x2="450" y2="92.3076923076923" stroke="black" /><line x1="250" y1="553.8461538461538" x2="450" y2="184.6153846153846" stroke="black" /><line x1="250" y1="553.8461538461538" x2="450" y2="276.9230769230769" stroke="black" /><line x1="250" y1="553.8461538461538" x2="450" y2="369.2307692307692" stroke="black" /><line x1="250" y1="553.8461538461538" x2="450" y2="461.53846153846155" stroke="black" /><line x1="250" y1="553.8461538461538" x2="450" y2="553.8461538461538" stroke="black" /><line x1="250" y1="553.8461538461538" x2="450" y2="646.1538461538462" stroke="black" /><line x1="250" y1="553.8461538461538" x2="450" y2="738.4615384615385" stroke="black" /><line x1="250" y1="553.8461538461538" x2="450" y2="830.7692307692307" stroke="black" /><line x1="250" y1="553.8461538461538" x2="450" y2="923.0769230769231" stroke="black" /><line x1="250" y1="553.8461538461538" x2="450" y2="1015.3846153846154" stroke="black" /><line x1="250" y1="553.8461538461538" x2="450" y2="1107.6923076923076" stroke="black" /><circle cx="250" cy="646.1538461538462" r="20" fill="skyblue" /><line x1="250" y1="646.1538461538462" x2="450" y2="92.3076923076923" stroke="black" /><line x1="250" y1="646.1538461538462" x2="450" y2="184.6153846153846" stroke="black" /><line x1="250" y1="646.1538461538462" x2="450" y2="276.9230769230769" stroke="black" /><line x1="250" y1="646.1538461538462" x2="450" y2="369.2307692307692" stroke="black" /><line x1="250" y1="646.1538461538462" x2="450" y2="461.53846153846155" stroke="black" /><line x1="250" y1="646.1538461538462" x2="450" y2="553.8461538461538" stroke="black" /><line x1="250" y1="646.1538461538462" x2="450" y2="646.1538461538462" stroke="black" /><line x1="250" y1="646.1538461538462" x2="450" y2="738.4615384615385" stroke="black" /><line x1="250" y1="646.1538461538462" x2="450" y2="830.7692307692307" stroke="black" /><line x1="250" y1="646.1538461538462" x2="450" y2="923.0769230769231" stroke="black" /><line x1="250" y1="646.1538461538462" x2="450" y2="1015.3846153846154" stroke="black" /><line x1="250" y1="646.1538461538462" x2="450" y2="1107.6923076923076" stroke="black" /><circle cx="250" cy="738.4615384615385" r="20" fill="skyblue" /><line x1="250" y1="738.4615384615385" x2="450" y2="92.3076923076923" stroke="black" /><line x1="250" y1="738.4615384615385" x2="450" y2="184.6153846153846" stroke="black" /><line x1="250" y1="738.4615384615385" x2="450" y2="276.9230769230769" stroke="black" /><line x1="250" y1="738.4615384615385" x2="450" y2="369.2307692307692" stroke="black" /><line x1="250" y1="738.4615384615385" x2="450" y2="461.53846153846155" stroke="black" /><line x1="250" y1="738.4615384615385" x2="450" y2="553.8461538461538" stroke="black" /><line x1="250" y1="738.4615384615385" x2="450" y2="646.1538461538462" stroke="black" /><line x1="250" y1="738.4615384615385" x2="450" y2="738.4615384615385" stroke="black" /><line x1="250" y1="738.4615384615385" x2="450" y2="830.7692307692307" stroke="black" /><line x1="250" y1="738.4615384615385" x2="450" y2="923.0769230769231" stroke="black" /><line x1="250" y1="738.4615384615385" x2="450" y2="1015.3846153846154" stroke="black" /><line x1="250" y1="738.4615384615385" x2="450" y2="1107.6923076923076" stroke="black" /><circle cx="250" cy="830.7692307692307" r="20" fill="skyblue" /><line x1="250" y1="830.7692307692307" x2="450" y2="92.3076923076923" stroke="black" /><line x1="250" y1="830.7692307692307" x2="450" y2="184.6153846153846" stroke="black" /><line x1="250" y1="830.7692307692307" x2="450" y2="276.9230769230769" stroke="black" /><line x1="250" y1="830.7692307692307" x2="450" y2="369.2307692307692" stroke="black" /><line x1="250" y1="830.7692307692307" x2="450" y2="461.53846153846155" stroke="black" /><line x1="250" y1="830.7692307692307" x2="450" y2="553.8461538461538" stroke="black" /><line x1="250" y1="830.7692307692307" x2="450" y2="646.1538461538462" stroke="black" /><line x1="250" y1="830.7692307692307" x2="450" y2="738.4615384615385" stroke="black" /><line x1="250" y1="830.7692307692307" x2="450" y2="830.7692307692307" stroke="black" /><line x1="250" y1="830.7692307692307" x2="450" y2="923.0769230769231" stroke="black" /><line x1="250" y1="830.7692307692307" x2="450" y2="1015.3846153846154" stroke="black" /><line x1="250" y1="830.7692307692307" x2="450" y2="1107.6923076923076" stroke="black" /><circle cx="250" cy="923.0769230769231" r="20" fill="skyblue" /><line x1="250" y1="923.0769230769231" x2="450" y2="92.3076923076923" stroke="black" /><line x1="250" y1="923.0769230769231" x2="450" y2="184.6153846153846" stroke="black" /><line x1="250" y1="923.0769230769231" x2="450" y2="276.9230769230769" stroke="black" /><line x1="250" y1="923.0769230769231" x2="450" y2="369.2307692307692" stroke="black" /><line x1="250" y1="923.0769230769231" x2="450" y2="461.53846153846155" stroke="black" /><line x1="250" y1="923.0769230769231" x2="450" y2="553.8461538461538" stroke="black" /><line x1="250" y1="923.0769230769231" x2="450" y2="646.1538461538462" stroke="black" /><line x1="250" y1="923.0769230769231" x2="450" y2="738.4615384615385" stroke="black" /><line x1="250" y1="923.0769230769231" x2="450" y2="830.7692307692307" stroke="black" /><line x1="250" y1="923.0769230769231" x2="450" y2="923.0769230769231" stroke="black" /><line x1="250" y1="923.0769230769231" x2="450" y2="1015.3846153846154" stroke="black" /><line x1="250" y1="923.0769230769231" x2="450" y2="1107.6923076923076" stroke="black" /><circle cx="250" cy="1015.3846153846154" r="20" fill="skyblue" /><line x1="250" y1="1015.3846153846154" x2="450" y2="92.3076923076923" stroke="black" /><line x1="250" y1="1015.3846153846154" x2="450" y2="184.6153846153846" stroke="black" /><line x1="250" y1="1015.3846153846154" x2="450" y2="276.9230769230769" stroke="black" /><line x1="250" y1="1015.3846153846154" x2="450" y2="369.2307692307692" stroke="black" /><line x1="250" y1="1015.3846153846154" x2="450" y2="461.53846153846155" stroke="black" /><line x1="250" y1="1015.3846153846154" x2="450" y2="553.8461538461538" stroke="black" /><line x1="250" y1="1015.3846153846154" x2="450" y2="646.1538461538462" stroke="black" /><line x1="250" y1="1015.3846153846154" x2="450" y2="738.4615384615385" stroke="black" /><line x1="250" y1="1015.3846153846154" x2="450" y2="830.7692307692307" stroke="black" /><line x1="250" y1="1015.3846153846154" x2="450" y2="923.0769230769231" stroke="black" /><line x1="250" y1="1015.3846153846154" x2="450" y2="1015.3846153846154" stroke="black" /><line x1="250" y1="1015.3846153846154" x2="450" y2="1107.6923076923076" stroke="black" /><circle cx="250" cy="1107.6923076923076" r="20" fill="skyblue" /><line x1="250" y1="1107.6923076923076" x2="450" y2="92.3076923076923" stroke="black" /><line x1="250" y1="1107.6923076923076" x2="450" y2="184.6153846153846" stroke="black" /><line x1="250" y1="1107.6923076923076" x2="450" y2="276.9230769230769" stroke="black" /><line x1="250" y1="1107.6923076923076" x2="450" y2="369.2307692307692" stroke="black" /><line x1="250" y1="1107.6923076923076" x2="450" y2="461.53846153846155" stroke="black" /><line x1="250" y1="1107.6923076923076" x2="450" y2="553.8461538461538" stroke="black" /><line x1="250" y1="1107.6923076923076" x2="450" y2="646.1538461538462" stroke="black" /><line x1="250" y1="1107.6923076923076" x2="450" y2="738.4615384615385" stroke="black" /><line x1="250" y1="1107.6923076923076" x2="450" y2="830.7692307692307" stroke="black" /><line x1="250" y1="1107.6923076923076" x2="450" y2="923.0769230769231" stroke="black" /><line x1="250" y1="1107.6923076923076" x2="450" y2="1015.3846153846154" stroke="black" /><line x1="250" y1="1107.6923076923076" x2="450" y2="1107.6923076923076" stroke="black" /><circle cx="450" cy="92.3076923076923" r="20" fill="skyblue" /><line x1="450" y1="92.3076923076923" x2="650" y2="300.0" stroke="black" /><line x1="450" y1="92.3076923076923" x2="650" y2="600.0" stroke="black" /><line x1="450" y1="92.3076923076923" x2="650" y2="900.0" stroke="black" /><circle cx="450" cy="184.6153846153846" r="20" fill="skyblue" /><line x1="450" y1="184.6153846153846" x2="650" y2="300.0" stroke="black" /><line x1="450" y1="184.6153846153846" x2="650" y2="600.0" stroke="black" /><line x1="450" y1="184.6153846153846" x2="650" y2="900.0" stroke="black" /><circle cx="450" cy="276.9230769230769" r="20" fill="skyblue" /><line x1="450" y1="276.9230769230769" x2="650" y2="300.0" stroke="black" /><line x1="450" y1="276.9230769230769" x2="650" y2="600.0" stroke="black" /><line x1="450" y1="276.9230769230769" x2="650" y2="900.0" stroke="black" /><circle cx="450" cy="369.2307692307692" r="20" fill="skyblue" /><line x1="450" y1="369.2307692307692" x2="650" y2="300.0" stroke="black" /><line x1="450" y1="369.2307692307692" x2="650" y2="600.0" stroke="black" /><line x1="450" y1="369.2307692307692" x2="650" y2="900.0" stroke="black" /><circle cx="450" cy="461.53846153846155" r="20" fill="skyblue" /><line x1="450" y1="461.53846153846155" x2="650" y2="300.0" stroke="black" /><line x1="450" y1="461.53846153846155" x2="650" y2="600.0" stroke="black" /><line x1="450" y1="461.53846153846155" x2="650" y2="900.0" stroke="black" /><circle cx="450" cy="553.8461538461538" r="20" fill="skyblue" /><line x1="450" y1="553.8461538461538" x2="650" y2="300.0" stroke="black" /><line x1="450" y1="553.8461538461538" x2="650" y2="600.0" stroke="black" /><line x1="450" y1="553.8461538461538" x2="650" y2="900.0" stroke="black" /><circle cx="450" cy="646.1538461538462" r="20" fill="skyblue" /><line x1="450" y1="646.1538461538462" x2="650" y2="300.0" stroke="black" /><line x1="450" y1="646.1538461538462" x2="650" y2="600.0" stroke="black" /><line x1="450" y1="646.1538461538462" x2="650" y2="900.0" stroke="black" /><circle cx="450" cy="738.4615384615385" r="20" fill="skyblue" /><line x1="450" y1="738.4615384615385" x2="650" y2="300.0" stroke="black" /><line x1="450" y1="738.4615384615385" x2="650" y2="600.0" stroke="black" /><line x1="450" y1="738.4615384615385" x2="650" y2="900.0" stroke="black" /><circle cx="450" cy="830.7692307692307" r="20" fill="skyblue" /><line x1="450" y1="830.7692307692307" x2="650" y2="300.0" stroke="black" /><line x1="450" y1="830.7692307692307" x2="650" y2="600.0" stroke="black" /><line x1="450" y1="830.7692307692307" x2="650" y2="900.0" stroke="black" /><circle cx="450" cy="923.0769230769231" r="20" fill="skyblue" /><line x1="450" y1="923.0769230769231" x2="650" y2="300.0" stroke="black" /><line x1="450" y1="923.0769230769231" x2="650" y2="600.0" stroke="black" /><line x1="450" y1="923.0769230769231" x2="650" y2="900.0" stroke="black" /><circle cx="450" cy="1015.3846153846154" r="20" fill="skyblue" /><line x1="450" y1="1015.3846153846154" x2="650" y2="300.0" stroke="black" /><line x1="450" y1="1015.3846153846154" x2="650" y2="600.0" stroke="black" /><line x1="450" y1="1015.3846153846154" x2="650" y2="900.0" stroke="black" /><circle cx="450" cy="1107.6923076923076" r="20" fill="skyblue" /><line x1="450" y1="1107.6923076923076" x2="650" y2="300.0" stroke="black" /><line x1="450" y1="1107.6923076923076" x2="650" y2="600.0" stroke="black" /><line x1="450" y1="1107.6923076923076" x2="650" y2="900.0" stroke="black" /><circle cx="650" cy="300.0" r="20" fill="skyblue" /><circle cx="650" cy="600.0" r="20" fill="skyblue" /><circle cx="650" cy="900.0" r="20" fill="skyblue" /></svg>